<?xml version="1.0" encoding="UTF-8" standalone="no"?>
<!DOCTYPE svg PUBLIC "-//W3C//DTD SVG 1.1//EN" "http://www.w3.org/Graphics/SVG/1.1/DTD/svg11.dtd">
<svg width="100%" height="100%" viewBox="0 0 483 419" version="1.1" xmlns="http://www.w3.org/2000/svg" xmlns:xlink="http://www.w3.org/1999/xlink" xml:space="preserve" xmlns:serif="http://www.serif.com/" style="fill-rule:evenodd;clip-rule:evenodd;stroke-miterlimit:10;">
    <path d="M230.772,235.338L230.771,235.333C230.436,232.846 230.892,231.234 231.676,230.146C232.474,229.04 233.719,228.323 235.248,227.848C236.779,227.373 238.497,227.169 240.139,227.02C240.402,226.996 240.666,226.973 240.929,226.951C242.237,226.839 243.515,226.729 244.431,226.479L244.446,226.475C247.226,225.673 249.917,226.22 252.848,226.816C252.911,226.829 252.974,226.841 253.037,226.854C255.96,227.448 259.148,228.066 262.395,226.807L262.404,226.803L262.412,226.8C264.637,225.889 267.242,226.35 269.528,228.069C269.997,228.539 270.436,229.001 270.701,229.614C271.059,230.517 270.987,231.595 270.613,232.6C270.238,233.609 269.62,234.38 269.086,234.72C268.484,235.037 267.809,235.168 266.975,235.285C266.872,235.3 266.765,235.314 266.656,235.329C265.917,235.428 265.052,235.544 264.215,235.843L264.208,235.846C262.755,236.377 261.5,237.461 260.392,238.654C259.518,239.595 258.672,240.677 257.863,241.713C257.645,241.991 257.43,242.266 257.218,242.534C256.19,243.832 255.222,244.974 254.231,245.767C253.251,246.552 252.357,246.906 251.457,246.82L251.434,246.818C250.162,246.728 248.939,245.775 247.464,244.377C247.273,244.196 247.076,244.006 246.876,243.813C246.356,243.312 245.813,242.789 245.272,242.321C244.514,241.667 243.68,241.049 242.76,240.66L242.758,240.659C241.404,240.089 240.049,240.071 238.827,240.133C238.49,240.15 238.17,240.172 237.86,240.193C236.99,240.253 236.206,240.307 235.395,240.226L235.371,240.224L235.346,240.223C233.446,240.128 231.192,238.591 230.772,235.338Z" style="fill:none;fill-rule:nonzero;stroke:currentColor;stroke-width:2px;"/>
    <path d="M263.374,245.801L263.368,245.81C262.852,246.56 262.341,247.351 261.818,248.159C260.939,249.518 260.028,250.925 259.018,252.264C257.419,254.381 255.764,256.039 254.006,256.712C252.435,257.3 250.932,257.037 249.273,256.264C247.928,255.617 246.646,254.544 245.288,253.216C244.67,252.611 244.051,251.969 243.408,251.302C243.347,251.239 243.286,251.176 243.225,251.112C242.523,250.384 241.794,249.632 241.032,248.9C239.692,247.561 238.272,246.38 236.665,245.704C234.867,244.844 233.032,244.629 231.222,244.598C230.399,244.584 229.561,244.608 228.734,244.632C228.652,244.634 228.57,244.637 228.488,244.639C227.572,244.665 226.662,244.687 225.735,244.658L225.726,244.658C220.872,244.552 217.07,240.43 216.387,234.276C216.155,232.191 216.156,230.236 216.384,228.408C216.794,225.661 217.578,222.724 218.829,220.309C220.086,217.879 221.746,216.104 223.848,215.437C224.177,215.333 224.621,215.335 225.222,215.47C225.82,215.605 226.475,215.848 227.195,216.133C227.313,216.179 227.433,216.227 227.555,216.276C228.148,216.513 228.781,216.766 229.384,216.955C230.107,217.182 230.909,217.358 231.684,217.276L231.692,217.276L231.7,217.275C233.143,217.1 234.508,216.899 235.811,216.707C238.183,216.358 240.349,216.039 242.407,215.962L242.417,215.962L242.428,215.961C245.316,215.795 248.102,215.155 250.761,214.544C251.067,214.473 251.372,214.403 251.674,214.335C254.643,213.66 257.464,213.091 260.314,213.204C261.492,213.254 262.733,213.852 264.21,214.621C264.293,214.665 264.378,214.709 264.463,214.753C265.769,215.436 267.269,216.22 268.805,216.427C269.417,216.572 269.93,216.568 270.549,216.413L270.566,216.409L270.582,216.404C274.362,215.324 278.209,216.591 281.377,219.533L281.387,219.543L281.398,219.552C282.244,220.292 282.984,221.239 283.522,222.636L283.598,222.834L283.639,222.875C284.259,224.892 284.082,227.257 283.412,229.363C282.728,231.515 281.596,233.196 280.534,233.92L280.519,233.931L280.505,233.941C279.55,234.645 278.501,234.941 277.308,235.156C277.033,235.206 276.741,235.252 276.438,235.3C275.494,235.45 274.442,235.616 273.461,235.958C272.715,236.207 272.042,236.473 271.358,236.882C269.651,237.869 268.215,239.321 266.938,240.89C265.934,242.124 264.992,243.478 264.09,244.775C263.849,245.123 263.61,245.466 263.374,245.801Z" style="fill:none;fill-rule:nonzero;stroke:currentColor;stroke-width:2px;"/>
    <path d="M254.224,267.352L254.21,267.356C251.628,268.079 249.304,267.184 246.994,265.683C245.187,264.497 243.518,262.838 241.807,260.948C241.208,260.286 240.597,259.588 239.974,258.877C238.856,257.599 237.698,256.278 236.5,255.04C234.745,253.161 232.86,251.778 230.97,250.77L230.959,250.764L230.947,250.758C228.606,249.588 226.195,249.247 223.772,249.169C222.564,249.131 221.334,249.158 220.108,249.186L220.043,249.188C218.83,249.215 217.616,249.243 216.377,249.214C208.203,248.992 203.054,242.282 202.121,233.339C201.882,230.118 201.772,226.984 202.232,224.114L202.234,224.101C202.829,220.052 203.804,215.234 205.509,211.152C207.228,207.04 209.589,203.911 212.817,202.848C213.262,202.714 213.927,202.789 214.883,203.164C215.82,203.532 216.855,204.112 217.964,204.753C218.081,204.821 218.198,204.889 218.316,204.957C219.293,205.524 220.318,206.118 221.287,206.563C222.349,207.051 223.52,207.446 224.615,207.325L224.626,207.323C226.559,207.087 228.447,206.783 230.269,206.489C231.229,206.335 232.17,206.183 233.09,206.046C235.785,205.644 238.355,205.354 240.906,205.412C245.338,205.538 249.54,203.922 253.515,202.344C253.653,202.289 253.791,202.235 253.928,202.18C257.825,200.631 261.509,199.167 265.3,199.057L265.305,199.057C265.902,199.036 266.599,199.263 267.427,199.751C268.25,200.236 269.108,200.921 270.017,201.696C270.281,201.921 270.551,202.155 270.825,202.393C271.468,202.951 272.131,203.526 272.779,204.036C273.702,204.764 274.688,205.439 275.701,205.824C276.397,206.101 277.2,206.283 278.056,206.112L278.093,206.105L278.13,206.095C283.673,204.543 289.073,206.726 293.344,210.879C294.583,212.119 295.683,213.553 296.46,215.773L296.694,216.443L296.702,216.443C297.488,219.399 297.228,222.824 296.325,225.875C295.365,229.118 293.746,231.719 292.149,232.852L292.138,232.86L292.128,232.868C290.633,233.989 289.045,234.433 287.294,234.769C286.942,234.836 286.578,234.9 286.205,234.965C284.771,235.215 283.206,235.488 281.685,236.096L281.663,236.106C280.789,236.48 279.76,236.992 278.841,237.648C274.663,240.585 271.525,245.532 268.792,249.841C268.492,250.314 268.197,250.779 267.906,251.233L267.902,251.239C267.286,252.217 266.658,253.28 266.006,254.385C264.752,256.509 263.408,258.786 261.882,260.899C259.564,264.108 257.042,266.608 254.224,267.352Z" style="fill:none;fill-rule:nonzero;stroke:currentColor;stroke-width:2px;"/>
    <path d="M272.457,256.876C271.663,258.142 270.846,259.546 269.988,261.02C268.372,263.795 266.615,266.814 264.608,269.609C261.54,273.884 258.131,277.261 254.262,278.133C250.871,278.874 247.587,277.305 244.656,275.078C242.408,273.348 240.367,271.11 238.305,268.689C237.813,268.112 237.319,267.523 236.821,266.929C235.256,265.063 233.651,263.15 231.949,261.4C229.726,258.933 227.48,257.181 225.091,255.923L225.088,255.922C220.254,253.395 215.017,253.546 209.493,253.706C208.662,253.73 207.825,253.755 206.981,253.77L206.98,253.77C201.255,253.883 196.833,251.49 193.67,247.631C190.484,243.745 188.557,238.343 187.971,232.489L187.97,232.478C187.498,228.232 187.501,224.003 188.086,220.025C188.864,214.755 190.021,208.072 192.169,202.335C194.337,196.543 197.4,192.026 201.79,190.616L201.792,190.616C202.432,190.409 203.373,190.563 204.686,191.17C205.963,191.76 207.374,192.672 208.859,193.659C209.012,193.761 209.166,193.864 209.321,193.967C210.635,194.844 211.995,195.75 213.271,196.431C214.663,197.173 216.168,197.769 217.544,197.612L217.551,197.611C220.236,197.286 222.834,196.833 225.342,196.397C226.551,196.186 227.738,195.98 228.905,195.792C232.524,195.211 236.009,194.805 239.56,194.979C245.191,195.295 250.511,192.857 255.548,190.398C255.892,190.23 256.235,190.062 256.576,189.895C261.331,187.564 265.848,185.349 270.489,185.027C271.195,184.989 272.032,185.311 273.041,186.046C274.041,186.774 275.08,187.81 276.169,188.981C276.546,189.387 276.932,189.812 277.323,190.243C278.032,191.023 278.755,191.819 279.458,192.536C280.555,193.654 281.712,194.695 282.899,195.339L282.939,195.361L282.982,195.379L283.014,195.393C283.411,195.564 283.89,195.769 284.369,195.893C284.859,196.02 285.456,196.092 286.064,195.897C293.26,193.882 300.09,196.882 305.569,202.361C307.158,203.95 308.71,205.948 309.611,208.935C309.628,209.033 309.654,209.113 309.675,209.17C309.697,209.226 309.721,209.278 309.738,209.314L309.748,209.352C310.886,213.503 310.526,218.375 309.287,222.675C308.04,227.004 305.963,230.544 303.868,232.155L303.861,232.161C301.833,233.75 299.686,234.343 297.367,234.783C296.934,234.866 296.489,234.943 296.037,235.022C294.117,235.356 292.051,235.715 290.05,236.588L290.026,236.598L290.003,236.61L289.964,236.629C288.795,237.214 287.528,237.847 286.375,238.741C283.309,240.935 280.778,243.976 278.552,247.186C277.037,249.371 275.629,251.688 274.288,253.895C273.665,254.92 273.056,255.922 272.457,256.876Z" style="fill:none;fill-rule:nonzero;stroke:currentColor;stroke-width:2px;"/>
    <path d="M254.412,288.798L254.408,288.799C249.957,289.668 245.834,287.408 242.294,284.459C239.614,282.186 237.207,279.373 234.767,276.38C234.335,275.849 233.901,275.312 233.465,274.772C231.458,272.29 229.396,269.738 227.153,267.395C224.461,264.46 221.856,262.342 218.973,260.838L218.971,260.837C212.93,257.7 206.353,257.915 199.105,258.152C198.534,258.171 197.958,258.189 197.378,258.207L197.376,258.207C190.041,258.436 184.457,255.387 180.501,250.485C176.52,245.553 174.171,238.714 173.464,231.417C172.988,226.06 172.875,220.76 173.695,215.723L173.696,215.717C174.718,209.166 176.056,200.594 178.629,193.185C181.224,185.712 184.952,179.793 190.512,178.029C191.367,177.766 192.601,178.034 194.266,178.89C195.888,179.723 197.675,180.982 199.536,182.322C199.707,182.446 199.878,182.57 200.051,182.694C201.721,183.901 203.436,185.139 205.039,186.067C206.763,187.066 208.589,187.85 210.23,187.66C213.638,187.282 216.937,186.68 220.145,186.095C221.54,185.84 222.918,185.589 224.281,185.36C228.81,184.6 233.241,184.076 237.855,184.426C244.671,184.993 251.069,181.739 257.151,178.385C257.669,178.1 258.184,177.813 258.698,177.528C264.332,174.4 269.729,171.404 275.317,170.876L275.32,170.876C276.145,170.796 277.137,171.207 278.349,172.204C279.539,173.184 280.774,174.592 282.06,176.176C282.531,176.757 283.014,177.368 283.5,177.984C284.309,179.006 285.128,180.043 285.926,180.982C287.209,182.492 288.549,183.888 289.914,184.754L289.939,184.769L289.964,184.783C291.04,185.381 292.195,185.942 293.57,185.599L293.583,185.595L293.596,185.592C302.592,183.087 310.985,186.92 317.547,193.716L317.553,193.722L317.559,193.729C319.498,195.667 321.408,198.138 322.551,201.951C322.574,202.164 322.633,202.328 322.674,202.43L322.674,202.431L322.697,202.516C324.136,207.812 323.714,213.947 322.205,219.324C320.686,224.734 318.129,229.169 315.498,231.197L315.492,231.201C312.928,233.208 310.216,233.922 307.32,234.468C306.865,234.554 306.402,234.636 305.933,234.72C303.467,235.156 300.841,235.622 298.297,236.839C296.69,237.582 295.181,238.459 293.787,239.597C290.129,242.39 287.064,246.206 284.36,250.225C282.434,253.087 280.66,256.101 278.984,258.949C278.31,260.094 277.652,261.213 277.006,262.284C276.087,263.787 275.129,265.481 274.114,267.274C272.138,270.764 269.95,274.63 267.437,278.188C263.631,283.576 259.333,287.859 254.412,288.798Z" style="fill:none;fill-rule:nonzero;stroke:currentColor;stroke-width:2px;"/>
    <path d="M281.439,267.804L281.437,267.809C280.431,269.505 279.374,271.419 278.253,273.451C275.896,277.721 273.253,282.51 270.192,286.884C265.67,293.346 260.479,298.52 254.432,299.586C249.147,300.465 244.18,297.618 239.921,293.833C236.812,291.017 234.039,287.658 231.256,284.126C230.737,283.468 230.218,282.804 229.696,282.136C227.432,279.239 225.119,276.279 222.61,273.524C219.549,270.097 216.464,267.621 213.229,265.879L213.219,265.874C205.77,261.966 197.734,262.273 188.549,262.623C188.372,262.63 188.195,262.637 188.018,262.643L188.017,262.643C179.068,262.99 172.35,259.284 167.631,253.353C162.885,247.388 160.143,239.139 159.316,230.457C158.721,224.026 158.607,217.642 159.549,211.518L159.55,211.512C159.578,211.32 159.606,211.127 159.635,210.932C160.766,203.245 162.254,193.134 165.175,184.314C168.192,175.203 172.613,167.861 179.36,165.68C180.438,165.362 181.968,165.753 183.98,166.855C185.945,167.933 188.109,169.539 190.344,171.233C190.534,171.377 190.725,171.521 190.916,171.666C192.942,173.203 195.01,174.773 196.938,175.949C198.997,177.205 201.141,178.172 203.04,177.948L203.045,177.948C206.972,177.467 210.771,176.741 214.467,176.035C216.326,175.68 218.158,175.33 219.969,175.018C225.422,174.079 230.776,173.467 236.402,173.994L236.408,173.995C244.329,174.686 251.761,170.629 258.873,166.394C259.522,166.008 260.167,165.62 260.811,165.234C267.352,161.309 273.675,157.516 280.258,156.726L280.265,156.725C281.227,156.602 282.385,157.106 283.793,158.358C285.172,159.584 286.6,161.354 288.073,163.342C288.678,164.159 289.3,165.026 289.925,165.898C290.782,167.093 291.645,168.297 292.478,169.389C293.926,171.289 295.417,173.04 296.914,174.151C298.238,175.206 299.617,175.743 301.098,175.413L301.125,175.407L301.151,175.4C311.814,172.419 321.884,177.198 329.533,185.199C331.849,187.63 334.126,190.592 335.508,195.259C335.509,195.269 335.511,195.278 335.512,195.287C335.522,195.343 335.535,195.393 335.545,195.432C335.565,195.505 335.59,195.577 335.603,195.616C335.606,195.626 335.609,195.634 335.611,195.642L335.611,195.674L335.647,195.803C337.385,202.178 336.873,209.571 335.078,216.045C333.274,222.552 330.235,227.917 327.121,230.363C323.958,232.849 320.647,233.712 317.168,234.363C316.628,234.465 316.08,234.561 315.527,234.658C312.568,235.178 309.453,235.726 306.444,237.202C304.569,238.078 302.831,239.198 301.231,240.429L301.228,240.431C296.842,243.828 293.233,248.462 290.062,253.325C288.003,256.481 286.094,259.792 284.277,262.944C283.308,264.626 282.365,266.261 281.439,267.804Z" style="fill:none;fill-rule:nonzero;stroke:currentColor;stroke-width:2px;"/>
    <path d="M308.77,241.519C308.77,241.519 308.769,241.52 308.769,241.52C308.769,241.52 308.77,241.519 308.77,241.519M308.77,241.519C310.471,240.159 311.353,239.612 313.225,238.505C313.579,238.296 313.943,238.105 314.31,237.921C314.433,237.858 314.808,237.687 314.694,237.765C313.73,238.426 312.741,239.049 311.753,239.675C310.766,240.301 309.767,240.908 308.77,241.519M144.149,209.441C146.539,193.356 149.383,176.563 157.872,162.34C160.273,158.317 163.991,154.672 168.576,153.208L168.583,153.206C170.374,152.619 172.42,153.67 174.067,154.588C179.149,157.42 187.104,165.506 192.794,167.453C197.798,169.166 204.983,166.613 209.725,165.739C217.883,164.236 226.817,162.553 235.191,163.441L235.193,163.442C254.782,165.467 267.171,145.589 285.537,142.577C287.013,142.335 288.5,143.543 289.529,144.629C295.366,150.79 297.859,158.031 304.327,163.703C305.574,164.797 307.482,165.678 309.072,165.206C321.402,161.753 332.905,167.359 341.756,176.679C344.435,179.592 347.068,183.031 348.69,188.521C348.711,188.72 348.761,188.871 348.787,188.948L348.792,188.961C348.795,188.972 348.798,188.981 348.8,188.988L348.8,189.076L348.834,189.202C352.453,202.825 348.172,217.217 340.445,228.514C332.745,234.651 323.177,233.592 314.694,237.765L308.77,241.519C291.413,255.283 283.772,277.273 273.024,295.638C269.313,301.978 263.887,309.417 255.943,310.678C251.763,310.999 245.214,311.731 237.988,306.706L235.533,303.849C223.388,292.509 217.743,274.133 200.87,268.139C195.7,266.302 184.041,266.969 178.783,267.2C157.705,268.008 147.059,248.288 145.288,229.504C144.693,222.111 143.086,216.648 144.149,209.441Z" style="fill:none;fill-rule:nonzero;stroke:currentColor;stroke-width:2px;"/>
    <path d="M254.577,321.044L254.565,321.045C247.39,322.167 240.629,317.8 235.151,312.561C231.199,308.726 227.734,304.229 224.258,299.569C223.838,299.006 223.418,298.442 222.998,297.875C219.945,293.768 216.838,289.587 213.38,285.756C209.484,281.374 205.559,278.175 201.358,275.95C191.844,270.763 181.481,271.158 169.193,271.635L169.184,271.636C157.005,272.219 147.985,267.169 141.708,259.144C135.401,251.082 131.847,239.984 130.78,228.539L130.78,228.535C129.945,219.953 129.83,211.291 131.132,203.008L131.132,203.005C131.32,201.783 131.513,200.504 131.712,199.177C133.17,189.468 135.007,177.235 138.398,166.356C140.323,160.179 142.734,154.494 145.823,149.986C148.91,145.483 152.637,142.208 157.189,140.737L157.193,140.736C157.905,140.503 158.78,140.518 159.849,140.813C160.919,141.109 162.118,141.667 163.428,142.437C166.054,143.981 168.961,146.275 171.947,148.674C172.184,148.864 172.422,149.055 172.66,149.247C175.389,151.443 178.162,153.674 180.735,155.344C182.137,156.254 183.513,157.02 184.821,157.529C186.123,158.034 187.424,158.311 188.652,158.165C193.997,157.548 199.163,156.519 204.215,155.513C206.563,155.046 208.887,154.583 211.193,154.169C218.502,152.856 225.734,152.007 233.383,152.889L233.388,152.89C243.627,154.013 253.211,148.359 262.43,142.347C263.383,141.725 264.333,141.099 265.281,140.475C268.965,138.047 272.614,135.642 276.303,133.6C280.932,131.037 285.545,129.092 290.228,128.427C291.496,128.256 292.995,129.012 294.781,130.807C296.528,132.563 298.324,135.084 300.165,137.891C300.905,139.019 301.657,140.202 302.413,141.39C303.507,143.109 304.608,144.839 305.685,146.427C307.508,149.112 309.374,151.562 311.254,153.129C312.801,154.541 314.569,155.38 316.471,154.904L316.484,154.901L316.497,154.897C330.624,150.96 343.69,157.52 353.626,168.046C356.684,171.34 359.807,175.398 361.546,181.659L361.572,181.752L361.615,181.838C361.619,181.846 361.627,181.862 361.66,181.993L361.664,182.011C361.688,182.106 361.728,182.269 361.805,182.449C364.06,190.968 363.393,200.849 361.05,209.485C358.69,218.185 354.69,225.402 350.502,228.684L350.496,228.688L350.491,228.693C346.312,232.071 341.897,233.233 337.279,234.109C336.568,234.244 335.849,234.372 335.124,234.501C331.187,235.204 327.077,235.938 323.095,237.929C320.64,239.156 318.298,240.634 316.196,242.365C310.5,246.959 305.787,253.115 301.643,259.581C298.797,264.021 296.189,268.657 293.715,273.055C292.594,275.049 291.5,276.993 290.424,278.847C289.111,281.096 287.725,283.664 286.246,286.405C283.194,292.06 279.746,298.447 275.734,304.26C269.771,312.897 262.82,319.85 254.577,321.044Z" style="fill:none;fill-rule:nonzero;stroke:currentColor;stroke-width:2px;"/>
    <path d="M117.761,196.147C118.781,189.453 119.368,182.692 120.584,176.032C122.906,163.311 125.641,149.467 133.347,138.634C136.175,134.659 142.101,127.079 148.409,128.615C159.923,131.417 162.542,137.079 172.765,144.992C174.796,146.564 178.852,148.541 181.577,148.213C198.232,146.209 214.9,140.251 231.937,142.337L231.938,142.337C256.435,145.298 272.234,117.841 295.159,114.276L295.16,114.276C296.803,114.02 299.319,115.761 300.172,116.972C305.022,123.859 311.816,136.866 318.326,142.576L318.335,142.584C320.017,144.025 321.955,145.223 324.061,144.583C339.981,140.173 354.6,147.57 365.609,159.406C369.033,163.184 372.516,167.724 374.495,174.825L374.521,174.918L374.564,175.004C374.568,175.012 374.575,175.027 374.608,175.159L374.613,175.177C374.636,175.271 374.676,175.433 374.752,175.611C378.797,191.266 375.566,216.809 362.005,227.73C350.818,236.596 335.116,233.893 323.637,243.078L323.628,243.085C301.433,261.226 294.286,290.032 278.565,312.833C272.936,320.998 265.318,330.214 254.704,331.714C246.44,332.846 239.828,328.749 233.763,322.685L227.546,316.353C220.304,309.209 215.539,299.534 208.835,291.884C204.569,286.888 200.16,283.33 195.605,280.867L195.601,280.865C185.012,275.201 173.464,275.474 159.835,276.072L159.832,276.072C132.326,277.354 119.073,253.469 116.846,229.423L116.631,227.454C115.92,220.261 116.301,213.002 116.194,205.776C116.185,205.154 117.425,198.351 117.761,196.147Z" style="fill:none;fill-rule:nonzero;stroke:currentColor;stroke-width:2px;"/>
    <path d="M230.374,331.165L230.372,331.163C225.574,326.306 221.387,320.726 217.22,315.015C216.761,314.386 216.303,313.756 215.844,313.125C212.147,308.043 208.414,302.912 204.274,298.234C199.537,292.768 194.77,288.848 189.729,286.143C178.181,279.878 165.559,280.03 150.479,280.748C135.003,281.451 123.677,275.053 115.857,264.949C108.007,254.805 103.672,240.89 102.364,226.623C101.409,215.882 101.293,205.056 102.836,194.609C103.131,192.676 103.431,190.621 103.746,188.47C105.487,176.561 107.656,161.717 111.633,148.436C113.979,140.601 116.938,133.37 120.77,127.64C124.601,121.914 129.262,117.748 135.003,115.92L135.009,115.918C135.954,115.611 137.098,115.65 138.466,116.049C139.833,116.449 141.357,117.19 143.009,118.196C146.318,120.213 149.975,123.192 153.71,126.288C154.007,126.534 154.304,126.78 154.601,127.027C158.02,129.865 161.477,132.735 164.678,134.884C166.42,136.054 168.12,137.033 169.728,137.683C171.328,138.329 172.909,138.678 174.384,138.501C180.966,137.729 187.322,136.431 193.557,135.157C196.558,134.544 199.531,133.936 202.488,133.396C211.637,131.724 220.752,130.666 230.494,131.906L230.496,131.906C242.977,133.458 254.674,126.25 265.987,118.474C267.236,117.616 268.48,116.75 269.721,115.886C274.16,112.798 278.568,109.732 283.025,107.108C288.721,103.754 294.411,101.178 300.199,100.248C301.756,100.004 303.583,100.994 305.737,103.31C307.842,105.571 310.004,108.822 312.213,112.431C313.128,113.926 314.057,115.494 314.99,117.068C316.277,119.238 317.57,121.419 318.839,123.432C321.034,126.915 323.266,130.08 325.501,132.127C327.365,133.866 329.523,135.022 331.727,134.394C349.206,129.501 365.386,137.733 377.601,150.895C381.374,155.022 385.224,160.163 387.445,168.112L387.471,168.204L387.506,168.276C387.508,168.28 387.51,168.286 387.512,168.296C387.522,168.333 387.531,168.378 387.547,168.458L387.549,168.468C387.563,168.537 387.583,168.637 387.609,168.738C387.63,168.816 387.659,168.912 387.701,169.015C390.498,179.694 389.652,192.036 386.738,202.817C383.808,213.66 378.847,222.71 373.634,226.893C368.377,231.11 362.823,232.543 357.064,233.629C356.22,233.788 355.369,233.94 354.513,234.093C349.57,234.975 344.456,235.889 339.514,238.412L339.492,238.424C336.566,240.009 333.754,241.842 331.062,244.044L331.058,244.047C324.044,249.842 318.251,257.59 313.163,265.704C309.764,271.125 306.647,276.764 303.691,282.113C302.231,284.754 300.81,287.324 299.414,289.763L299.413,289.764C297.898,292.416 296.288,295.45 294.565,298.697C290.767,305.856 286.418,314.05 281.323,321.467C273.907,332.262 265.161,341.006 254.709,342.384L254.703,342.385C245.608,343.636 237.041,337.951 230.374,331.165Z" style="fill:none;fill-rule:nonzero;stroke:currentColor;stroke-width:2px;"/>
    <path d="M402.201,193.647C400.711,199.179 396.395,210.632 393.66,215.666C391.543,219.561 388.77,223.173 385.505,226.172C375.369,235.483 359.712,232.885 348.035,238.887C344.679,240.505 341.589,242.626 338.732,245.007C338.968,244.771 338.496,245.243 338.732,245.007C322.78,258.072 314.015,277.753 304.089,295.28C302.188,298.586 300.51,302.017 298.619,305.329C293.87,313.645 289.373,322.121 284.17,330.161C275.734,343.197 256.998,361.224 240.315,350.178C235.964,347.297 231.587,344.305 227.987,340.528L227.982,340.522C227.982,340.522 204.647,306.792 200.169,302.895C194.49,298.441 188.645,295.1 182.967,290.646C170.455,283.656 157.523,284.227 141.004,285.065L141.003,285.065C137.024,285.271 132.982,285.079 129.076,284.298C94.698,277.427 87.462,237.111 87.261,207.894C87.22,202.012 87.678,196.11 88.568,190.295L88.568,190.294C90.503,177.581 91.965,164.786 94.421,152.163C95.656,145.813 97.301,139.504 99.626,133.468C101.907,127.546 104.767,121.811 108.174,116.458C110.386,112.982 113.314,109.972 116.351,107.189C129.732,94.927 147.69,117.738 156.591,124.653C159.055,126.567 163.856,129.063 167.188,128.669C187.519,126.265 208.224,118.728 229.05,121.473L229.181,120.482L229.051,121.473C258.765,125.391 277.568,90.788 305.241,86.218L305.246,86.217C307.322,85.862 310.287,88.093 311.324,89.616C318.132,99.619 323.684,113.158 332.81,121.691C338.509,127.055 347.508,122.609 353.812,122.721C367.834,122.971 380.799,131.812 390.275,141.509C399.926,151.386 406.055,179.334 402.201,193.647Z" style="fill:none;fill-rule:nonzero;stroke:currentColor;stroke-width:2px;"/>
    <g transform="matrix(1.08603,0,0,1.08871,-22.6998,-20.7372)">
        <path d="M402.201,193.647C400.711,199.179 396.395,210.632 393.66,215.666C391.543,219.561 388.77,223.173 385.505,226.172C375.369,235.483 359.712,232.885 348.035,238.887C344.679,240.505 341.589,242.626 338.732,245.007C338.968,244.771 338.496,245.243 338.732,245.007C322.78,258.072 314.015,277.753 304.089,295.28C302.188,298.586 300.51,302.017 298.619,305.329C293.87,313.645 289.373,322.121 284.17,330.161C275.734,343.197 256.998,361.224 240.315,350.178C235.964,347.297 231.587,344.305 227.987,340.528L227.982,340.522C227.982,340.522 204.647,306.792 200.169,302.895C194.49,298.441 188.645,295.1 182.967,290.646C170.455,283.656 157.523,284.227 141.004,285.065L141.003,285.065C137.024,285.271 132.982,285.079 129.076,284.298C94.698,277.427 87.462,237.111 87.261,207.894C87.22,202.012 87.678,196.11 88.568,190.295L88.568,190.294C90.503,177.581 91.965,164.786 94.421,152.163C95.656,145.813 97.301,139.504 99.626,133.468C101.907,127.546 104.767,121.811 108.174,116.458C110.386,112.982 113.314,109.972 116.351,107.189C129.732,94.927 147.69,117.738 156.591,124.653C159.055,126.567 163.856,129.063 167.188,128.669C187.519,126.265 208.224,118.728 229.05,121.473L229.181,120.482L229.051,121.473C258.765,125.391 277.568,90.788 305.241,86.218L305.246,86.217C307.322,85.862 310.287,88.093 311.324,89.616C318.132,99.619 323.684,113.158 332.81,121.691C338.509,127.055 347.508,122.609 353.812,122.721C367.834,122.971 380.799,131.812 390.275,141.509C399.926,151.386 406.055,179.334 402.201,193.647Z" style="fill:none;fill-rule:nonzero;stroke:currentColor;stroke-width:2px;"/>
    </g>
    <path d="M223.197,359.239C217.134,352.76 211.894,345.498 206.662,338.107C206.264,337.545 205.866,336.982 205.468,336.419C200.642,329.592 195.769,322.698 190.249,316.342L190.246,316.338C184.188,309.432 178.226,304.558 171.876,301.017L171.871,301.014C157.207,292.949 141.47,292.979 122.061,293.937L122.055,293.938C101.73,295.057 86.96,286.654 76.818,273.406C66.643,260.115 61.108,241.913 59.44,223.506L59.439,223.502C58.125,209.521 57.89,195.463 60.031,181.664C60.503,178.622 60.981,175.333 61.485,171.861C63.685,156.726 66.39,138.115 71.259,121.345C74.25,111.044 78.042,101.501 82.996,93.927C87.948,86.356 94.018,80.816 101.553,78.39C102.835,77.98 104.373,78.06 106.182,78.62C107.99,79.179 109.996,80.195 112.158,81.557C116.486,84.283 121.272,88.285 126.139,92.423C126.523,92.75 126.909,93.078 127.294,93.406C131.756,97.205 136.252,101.033 140.403,103.906C142.661,105.468 144.851,106.772 146.909,107.641C148.959,108.507 150.955,108.973 152.796,108.766L152.798,108.766C161.36,107.788 169.639,106.071 177.791,104.381C181.666,103.578 185.512,102.781 189.346,102.072C201.296,99.861 213.253,98.474 226.046,100.25C233.997,101.364 241.68,99.522 249.161,96.118C256.633,92.718 263.964,87.731 271.222,82.49C272.891,81.285 274.556,80.066 276.218,78.85C281.811,74.757 287.378,70.683 293.009,67.18C300.306,62.639 307.62,59.118 315.081,57.8C316.086,57.628 317.168,57.874 318.366,58.578C319.574,59.288 320.844,60.433 322.17,61.955C324.823,65.001 327.547,69.372 330.318,74.204C331.482,76.233 332.661,78.356 333.843,80.483C335.444,83.365 337.05,86.257 338.631,88.937C341.387,93.611 344.17,97.833 346.939,100.57L346.953,100.584C349.38,102.89 351.901,104.449 354.731,103.704L354.743,103.701C377.612,97.368 398.35,108.349 413.927,125.233C418.878,130.655 423.794,137.327 426.74,147.616C426.767,148.082 426.912,148.513 427.01,148.808L427.015,148.822C430.607,162.812 429.492,178.923 425.72,192.972C421.935,207.068 415.534,218.878 408.76,224.378C401.944,229.912 394.714,231.794 387.245,233.225C386.16,233.433 385.067,233.631 383.968,233.831C377.553,234.997 370.953,236.197 364.569,239.493L364.558,239.499C360.654,241.573 357.122,244.01 353.722,246.803L353.719,246.805C344.603,254.341 337.132,264.459 330.604,275.048C326.269,282.08 322.318,289.377 318.579,296.281C316.699,299.753 314.873,303.126 313.078,306.316C311.169,309.686 309.129,313.566 306.938,317.733C302.044,327.042 296.396,337.784 289.759,347.487C280.14,361.55 268.7,373.013 254.962,374.636L254.956,374.636C242.871,376.133 231.664,368.302 223.197,359.239Z" style="fill:none;fill-rule:nonzero;stroke:currentColor;stroke-width:2px;"/>
    <path d="M220.806,368.599L220.803,368.595C214.319,361.576 208.719,353.744 203.095,345.796C202.864,345.468 202.632,345.141 202.4,344.813C197.018,337.203 191.58,329.513 185.333,322.456C178.907,314.941 172.345,309.711 165.646,305.935L165.64,305.932C150.014,297.264 133.195,297.296 112.347,298.374L112.345,298.374C90.462,299.554 74.553,290.462 63.63,276.164C52.676,261.824 46.72,242.214 44.932,222.428C43.617,207.365 43.382,192.225 45.644,177.345L45.644,177.344C46.123,174.168 46.609,170.74 47.121,167.123C49.442,150.736 52.314,130.466 57.562,112.216C60.763,101.082 64.832,90.764 70.161,82.577C75.488,74.395 82.028,68.407 90.16,65.802C91.56,65.361 93.234,65.46 95.193,66.078C97.151,66.696 99.319,67.809 101.652,69.293C106.321,72.265 111.483,76.615 116.724,81.105C117.129,81.452 117.534,81.799 117.939,82.147C122.756,86.279 127.605,90.438 132.079,93.557C134.507,95.25 136.859,96.661 139.067,97.6C141.266,98.536 143.4,99.037 145.364,98.815L145.366,98.815C154.577,97.755 163.466,95.888 172.223,94.049C176.386,93.175 180.519,92.307 184.643,91.535C197.49,89.13 210.375,87.623 224.246,89.579C232.769,90.783 241.007,88.798 249.035,85.12C257.052,81.446 264.919,76.054 272.709,70.378C274.546,69.039 276.379,67.686 278.208,66.334C284.164,61.933 290.094,57.552 296.088,53.774C303.917,48.84 311.764,44.997 319.765,43.531C320.873,43.331 322.055,43.598 323.351,44.361C324.659,45.13 326.028,46.375 327.452,48.026C330.301,51.331 333.216,56.079 336.175,61.323C337.429,63.545 338.698,65.87 339.969,68.198C341.666,71.306 343.366,74.421 345.04,77.31C347.977,82.378 350.94,86.947 353.889,89.895C356.475,92.481 359.223,94.008 362.153,93.276L362.166,93.272L362.179,93.269C386.606,86.457 409.023,98.278 425.679,116.481L425.68,116.483C431.128,122.404 436.418,129.581 439.48,140.769L439.487,140.796L439.496,140.822C439.548,140.977 439.601,141.164 439.663,141.38L439.667,141.392C439.721,141.582 439.782,141.795 439.844,141.987C443.737,157.056 442.532,174.426 438.474,189.57C434.405,204.762 427.524,217.5 420.269,223.421L420.268,223.421C412.914,229.433 405.115,231.464 397.078,233C395.904,233.224 394.722,233.438 393.535,233.653C386.639,234.902 379.561,236.183 372.72,239.734L372.713,239.738C368.568,241.932 364.674,244.61 361.03,247.647L361.026,247.651C351.314,255.845 343.334,266.771 336.343,278.182C331.793,285.61 327.629,293.301 323.679,300.595C321.572,304.486 319.527,308.265 317.516,311.83L317.515,311.832C315.529,315.367 313.405,319.425 311.123,323.784C305.833,333.89 299.698,345.613 292.472,356.18C282.119,371.321 269.781,383.683 254.964,385.426C242.036,386.927 229.866,378.492 220.806,368.599Z" style="fill:none;fill-rule:nonzero;stroke:currentColor;stroke-width:2px;"/>
    <path d="M218.409,377.952L218.41,377.953C228.07,388.568 241.08,397.718 255.084,396.098L255.087,396.097C271.04,394.293 284.276,381.034 295.349,364.799C303.112,353.417 309.687,340.772 315.342,329.897C317.744,325.278 319.979,320.978 322.069,317.23L322.07,317.229C324.156,313.503 326.278,309.562 328.463,305.503C332.713,297.608 337.202,289.269 342.128,281.211C349.599,268.989 358.148,257.284 368.58,248.49C372.47,245.207 376.604,242.411 381.098,239.982L381.106,239.978C388.469,236.086 396.094,234.703 403.534,233.353C404.745,233.133 405.951,232.914 407.15,232.685C415.759,231.044 424.126,228.893 432.019,222.461L432.02,222.461C439.812,216.123 447.143,202.457 451.468,186.171C455.783,169.921 457.048,151.276 452.905,135.119L452.903,135.113C452.848,134.891 452.792,134.697 452.732,134.486C452.673,134.28 452.61,134.059 452.547,133.806C449.244,121.784 443.595,114.13 437.792,107.852L437.786,107.846C420.054,88.328 396.08,75.667 369.855,82.957C366.766,83.838 363.755,82.016 361.083,79.345L361.076,79.338C357.95,76.15 354.801,71.231 351.675,65.771C349.893,62.659 348.085,59.309 346.281,55.967C344.928,53.461 343.578,50.959 342.243,48.565C339.096,42.924 335.997,37.811 332.972,34.249C331.459,32.469 330.005,31.123 328.615,30.289C327.236,29.462 325.979,29.17 324.803,29.383C316.233,30.998 307.839,35.162 299.478,40.489C293.083,44.563 286.762,49.279 280.417,54.012C278.457,55.474 276.494,56.938 274.526,58.386C266.219,64.496 257.839,70.293 249.302,74.241C240.755,78.194 231.99,80.323 222.925,79.028L222.924,79.028C208.035,76.892 194.192,78.489 180.4,81.059C175.917,81.895 171.425,82.837 166.903,83.785C157.564,85.743 148.094,87.729 138.292,88.863L138.29,88.863C136.205,89.101 133.932,88.563 131.583,87.553C129.226,86.54 126.712,85.019 124.113,83.191C119.334,79.83 114.153,75.349 109.001,70.894C108.557,70.51 108.112,70.126 107.669,69.742C102.053,64.892 96.516,60.19 91.506,56.979C89.003,55.375 86.674,54.171 84.567,53.504C82.458,52.835 80.649,52.727 79.131,53.212L79.131,53.212C70.4,55.997 63.387,62.433 57.683,71.227C51.977,80.024 47.627,91.114 44.208,103.072C38.633,122.574 35.579,144.214 33.11,161.709C32.549,165.68 32.019,169.437 31.496,172.907M218.409,377.952C211.506,370.394 205.575,361.993 199.653,353.462C199.262,352.898 198.871,352.335 198.48,351.77C192.957,343.806 187.385,335.771 181.022,328.338L181.019,328.334C174.117,320.342 167.193,314.749 160.008,310.73L160.005,310.728C143.301,301.462 125.288,301.372 103.113,302.571L103.111,302.571C79.548,303.87 62.471,294.148 50.771,278.832C39.037,263.474 32.692,242.454 30.784,221.229M31.496,172.907C31.496,172.907 31.496,172.908 31.496,172.908M31.496,172.907C31.496,172.907 31.496,172.907 31.496,172.906M31.496,172.907C29.114,188.868 29.349,205.209 30.784,221.229M30.784,221.229" style="fill:none;fill-rule:nonzero;stroke:currentColor;stroke-width:2px;"/>
    <path d="M326.507,322.863L326.505,322.866C324.313,326.804 321.965,331.323 319.441,336.181C313.411,347.786 306.375,361.325 298.062,373.506C286.255,390.805 272.12,404.962 255.089,406.888C240.244,408.511 226.394,398.76 216.014,387.308C208.689,379.209 202.399,370.238 196.1,361.194L195.614,360.496C189.489,351.7 183.329,342.855 176.22,334.805C168.961,326.338 161.678,320.384 154.01,316.123L154.007,316.122C136.347,306.378 117.259,306.167 93.638,307.486C68.457,308.845 50.242,298.434 37.777,282.07C25.279,265.663 18.544,243.234 16.516,220.629L16.516,220.628C14.961,203.53 14.726,186.112 17.347,169.073L17.347,169.073C17.955,165.104 18.569,160.782 19.22,156.204C21.851,137.686 25.078,114.976 30.9,94.467C34.528,81.685 39.149,69.822 45.222,60.407C51.293,50.995 58.772,44.095 68.101,41.101L68.105,41.1C69.725,40.573 71.655,40.688 73.901,41.403C76.145,42.117 78.626,43.408 81.292,45.126C86.626,48.565 92.526,53.604 98.509,58.799C98.975,59.204 99.442,59.609 99.908,60.015C105.406,64.794 110.933,69.6 116.031,73.204C118.799,75.161 121.474,76.789 123.981,77.872C126.48,78.951 128.89,79.524 131.097,79.271L131.099,79.271C141.551,78.055 151.645,75.919 161.602,73.812C166.418,72.793 171.203,71.78 175.98,70.882C190.685,68.117 205.457,66.401 221.363,68.716C231,70.132 240.314,67.867 249.398,63.636C258.471,59.41 267.377,53.192 276.208,46.632C278.307,45.074 280.4,43.496 282.491,41.92C289.23,36.843 295.948,31.782 302.745,27.41C311.643,21.685 320.585,17.207 329.723,15.473L329.724,15.473C330.988,15.232 332.329,15.542 333.793,16.426C335.268,17.316 336.808,18.756 338.406,20.662C341.602,24.474 344.87,29.953 348.189,35.999C349.576,38.526 350.978,41.164 352.383,43.807C354.311,47.433 356.245,51.071 358.156,54.454C361.465,60.309 364.805,65.584 368.137,69.012C370.964,72.082 374.079,73.874 377.39,73.01L377.404,73.006C405.427,65.235 430.841,78.852 449.778,99.575C455.946,106.336 461.957,114.474 465.498,127.342L465.505,127.367L465.514,127.393C465.619,127.708 465.729,128.145 465.852,128.638L465.853,128.642C470.237,145.88 468.882,165.784 464.282,183.128C459.672,200.51 451.861,215.103 443.531,221.86L443.527,221.863C435.095,228.773 426.188,231.074 417.026,232.82C415.732,233.066 414.431,233.302 413.124,233.539C405.222,234.97 397.124,236.436 389.265,240.574C384.512,243.012 380.133,246.055 376.009,249.573C364.919,258.907 355.831,271.391 347.882,284.434C342.728,292.891 338.019,301.643 333.555,309.94C331.145,314.419 328.806,318.766 326.507,322.863Z" style="fill:none;fill-rule:nonzero;stroke:currentColor;stroke-width:2px;"/>
    <path d="M3.08,164.395C3.736,160.117 4.399,155.442 5.102,150.481C7.878,130.902 11.286,106.864 17.426,85.129C21.272,71.514 26.174,58.869 32.624,48.834C39.072,38.802 47.022,31.446 56.95,28.273L56.953,28.272C58.675,27.715 60.729,27.848 63.117,28.621C65.503,29.395 68.142,30.782 70.976,32.623C76.646,36.308 82.925,41.696 89.29,47.243C89.761,47.653 90.232,48.063 90.702,48.474C96.578,53.6 102.486,58.755 107.931,62.616C110.874,64.704 113.716,66.438 116.375,67.591C119.026,68.74 121.575,69.347 123.904,69.079L123.905,69.079C134.948,67.79 145.624,65.534 156.164,63.308C161.339,62.214 166.482,61.128 171.618,60.166C187.267,57.237 202.998,55.43 219.923,57.925C230.131,59.431 240.002,57.016 249.631,52.501C259.25,47.992 268.691,41.358 278.055,34.356C280.293,32.682 282.526,30.988 284.757,29.295C291.887,23.886 298.994,18.494 306.182,13.835C315.611,7.723 325.084,2.938 334.761,1.085L334.762,1.085C336.398,0.77 338.167,1.336 340.126,2.82C342.086,4.305 344.119,6.626 346.213,9.567C350.362,15.394 354.583,23.408 358.842,31.494L358.957,31.713C363.232,39.83 367.547,48.003 371.802,53.869C373.928,56.801 376.086,59.225 378.273,60.78C380.469,62.342 382.806,63.103 385.192,62.457L385.195,62.456C414.897,54.323 441.871,68.78 461.886,90.82L461.889,90.823C468.412,97.94 474.785,106.677 478.568,120.388L478.568,120.39C483.664,138.758 482.37,160.184 477.5,178.906C472.62,197.666 464.209,213.487 455.279,220.783C446.306,228.114 436.829,230.565 427.097,232.431C425.732,232.692 424.36,232.943 422.983,233.194C414.581,234.726 405.986,236.294 397.654,240.696C381.606,249.145 369.083,263.698 358.527,279.759C351.077,291.092 344.559,303.258 338.47,314.62C335.938,319.345 333.481,323.931 331.062,328.26L331.061,328.262C328.746,332.43 326.261,337.222 323.587,342.38C317.198,354.705 309.726,369.116 300.894,382.08C288.352,400.489 273.318,415.573 255.21,417.559C239.288,419.302 224.598,408.835 213.617,396.661C205.873,388.083 199.223,378.572 192.58,368.96C192.276,368.52 191.971,368.079 191.667,367.639C185.338,358.477 178.971,349.259 171.666,340.804L171.666,340.803C158.901,326.042 146.084,318.248 131.887,314.428C117.735,310.621 102.274,310.784 84.287,311.803C57.488,313.282 38.134,302.182 24.889,284.754C11.61,267.282 4.455,243.414 2.247,219.428L1.252,219.519L2.247,219.428C0.573,201.254 0.338,182.635 3.08,164.395ZM3.08,164.395C3.08,164.396 3.079,164.397 3.079,164.397L2.091,164.245M3.08,164.395C3.08,164.395 3.08,164.395 3.08,164.394L2.091,164.245" style="fill:none;fill-rule:nonzero;stroke:currentColor;stroke-width:2px;"/>
</svg>
